<svg id="Ebene_1" data-name="Ebene 1" xmlns="http://www.w3.org/2000/svg" viewBox="0 0 773.04 250"><defs><style>.cls-1{fill:#cb2e2e;}</style></defs><polygon class="cls-1" points="224.83 87.68 191.69 162.33 180.58 162.33 147.34 87.68 161.5 87.68 186.21 145.38 211.2 87.68 224.83 87.68"/><polygon class="cls-1" points="357.22 87.68 357.22 162.33 347.08 162.33 307.03 110.22 307.03 162.33 294.31 162.33 294.31 87.68 304.41 87.68 344.53 139.82 344.53 87.68 357.22 87.68"/><path class="cls-1" d="M391,162.32V98.78H366.68V87.67H429V98.78H404.63v63.54Z"/><polygon class="cls-1" points="547.25 87.68 520.89 162.33 509.92 162.33 491.15 108.65 472.17 162.33 461.27 162.33 434.85 87.68 448.58 87.68 467.18 143.5 486.64 87.68 496.29 87.78 515.27 143.78 534.35 87.68 547.25 87.68"/><polygon class="cls-1" points="587.62 87.68 576.61 87.68 542.84 162.33 556.47 162.33 564.02 144.82 568.57 134.34 582.3 102.46 595.97 134.34 600.44 144.82 607.96 162.33 621.38 162.33 587.62 87.68"/><polygon class="cls-1" points="682.68 87.68 652.41 132.84 652.41 162.33 638.85 162.33 638.85 132.73 608.59 87.68 624 87.68 645.63 121.34 667.27 87.68 682.68 87.68"/><rect class="cls-1" x="90.36" y="151.73" width="49.91" height="10.59"/><rect class="cls-1" x="94.69" y="119.02" width="41.26" height="10.59"/><rect class="cls-1" x="236.27" y="119.02" width="41.26" height="10.59"/><rect class="cls-1" x="90.36" y="87.68" width="49.91" height="10.59"/><rect class="cls-1" x="231.94" y="151.73" width="49.91" height="10.59"/><rect class="cls-1" x="231.94" y="87.68" width="49.91" height="10.59"/></svg>